<?xml version="1.0" standalone="no"?>
<!DOCTYPE svg PUBLIC "-//W3C//DTD SVG 20010904//EN"
 "http://www.w3.org/TR/2001/REC-SVG-20010904/DTD/svg10.dtd">
<svg version="1.0" xmlns="http://www.w3.org/2000/svg"
 width="86.000000pt" height="77.000000pt" viewBox="0 0 86.000000 77.000000"
 preserveAspectRatio="xMidYMid meet">

<g transform="translate(0.000000,77.000000) scale(0.100000,-0.100000)"
fill="#000000" stroke="none">
<path d="M185 619 c-40 -36 -44 -58 -14 -85 12 -10 36 -42 55 -71 18 -28 42
-57 53 -63 24 -13 28 -30 6 -30 -21 0 -20 -5 25 -95 22 -44 40 -94 40 -112 0
-38 4 -41 61 -48 l44 -5 -45 12 c-30 9 -46 19 -48 31 -3 16 0 18 20 12 12 -4
25 -12 26 -16 5 -12 29 -12 34 0 2 4 13 12 26 15 27 9 31 -18 5 -33 -17 -10
-17 -10 -1 -11 18 0 23 14 32 85 16 131 19 144 42 166 l24 22 0 -25 c0 -28 23
-44 37 -25 5 7 20 45 34 86 15 47 32 79 47 88 28 19 28 43 1 77 -39 49 -55 51
-101 12 -23 -20 -48 -36 -55 -36 -7 0 -33 -18 -57 -40 -33 -30 -45 -37 -49
-26 -3 8 1 17 9 20 9 3 14 13 12 22 -3 16 -53 35 -135 50 -17 4 -42 17 -54 30
-12 13 -26 24 -30 24 -5 0 -24 -14 -44 -31z m463 2 c10 -6 10 -10 -3 -21 -18
-15 -42 0 -31 19 8 13 16 14 34 2z m-370 -20 c24 -12 125 -41 145 -41 10 0 17
-7 17 -15 0 -10 -10 -15 -29 -15 -24 0 -28 -3 -24 -20 4 -16 2 -19 -12 -14
-21 8 -35 -11 -35 -48 0 -16 -5 -28 -10 -28 -6 0 -5 -8 2 -20 21 -32 0 -35
-33 -4 -17 16 -51 55 -75 86 l-43 57 33 36 c37 38 38 39 64 26z m365 -44 c22
-26 27 -40 20 -49 -6 -7 -23 -48 -38 -90 -28 -78 -45 -92 -45 -37 l0 31 -42
-36 c-30 -26 -44 -33 -49 -24 -5 8 2 25 19 43 17 19 13 17 -13 -7 -41 -38 -65
-48 -65 -27 0 6 19 29 43 51 l42 40 -41 -31 c-23 -17 -44 -31 -47 -31 -13 0 2
33 29 62 16 18 19 25 7 15 -15 -13 -23 -15 -28 -7 -10 16 50 75 101 99 23 11
45 25 49 31 10 16 26 8 58 -33z m37 29 c0 -18 -17 -29 -30 -21 -8 5 -7 11 1
21 15 18 29 18 29 0z m20 -30 c0 -16 -18 -31 -27 -22 -8 8 5 36 17 36 5 0 10
-6 10 -14z m-280 -61 c0 -8 -4 -15 -10 -15 -5 0 -10 7 -10 15 0 8 5 15 10 15
6 0 10 -7 10 -15z m-53 -27 c-3 -8 -6 -5 -6 6 -1 11 2 17 5 13 3 -3 4 -12 1
-19z m49 -56 c1 -6 -2 -10 -7 -6 -12 7 -11 1 5 -31 16 -30 63 -58 84 -50 15 5
15 6 -3 -102 -4 -24 -10 -44 -14 -44 -25 -5 -101 -5 -108 0 -4 3 -23 35 -40
70 -25 49 -30 67 -21 78 6 7 8 16 4 20 -3 3 -6 1 -6 -5 0 -17 -17 -15 -24 3
-7 18 24 16 48 -4 14 -12 16 -7 16 48 0 46 3 61 14 61 11 0 16 -14 19 -47 3
-46 3 -46 6 12 2 53 4 57 13 35 6 -14 12 -31 14 -38z m19 30 c-3 -3 -11 0 -18
7 -9 10 -8 11 6 5 10 -3 15 -9 12 -12z m49 -97 c3 -8 1 -15 -4 -15 -6 0 -10 7
-10 15 0 8 2 15 4 15 2 0 6 -7 10 -15z"/>
</g>
</svg>