<?xml version="1.0" standalone="no"?>
<!DOCTYPE svg PUBLIC "-//W3C//DTD SVG 20010904//EN"
 "http://www.w3.org/TR/2001/REC-SVG-20010904/DTD/svg10.dtd">
<svg version="1.0" xmlns="http://www.w3.org/2000/svg"
 width="354.000000pt" height="119.000000pt" viewBox="0 0 354.000000 119.000000"
 preserveAspectRatio="xMidYMid meet">

<g transform="translate(0.000000,119.000000) scale(0.100000,-0.100000)"
fill="#000000" stroke="none">
<path d="M109 1083 c-23 -21 -48 -53 -56 -72 l-14 -34 54 -56 c30 -31 63 -72
72 -91 10 -19 45 -61 78 -92 58 -55 60 -58 34 -58 -41 0 -35 -28 38 -174 49
-98 65 -140 65 -172 0 -23 6 -47 14 -53 18 -16 105 -25 150 -17 54 10 66 28
66 100 0 35 7 83 16 107 8 24 18 73 21 109 6 58 10 68 40 93 32 28 33 28 33 7
0 -34 19 -60 44 -60 24 0 21 -7 89 189 15 43 35 76 64 106 40 40 42 44 32 73
-13 39 -92 112 -120 112 -12 0 -41 -18 -65 -40 -24 -22 -67 -51 -96 -63 -29
-13 -78 -47 -109 -75 -31 -28 -59 -49 -63 -45 -13 14 -5 41 14 46 14 4 20 14
20 34 0 26 -4 30 -47 40 -168 38 -219 56 -253 89 -20 19 -46 34 -58 34 -12 0
-41 -17 -63 -37z m742 -4 c20 -10 20 -11 3 -30 -21 -23 -37 -24 -54 -4 -10 12
-10 18 0 30 15 18 25 19 51 4z m-594 -33 c33 -17 174 -57 221 -64 36 -5 53
-29 31 -43 -8 -5 -31 -9 -51 -9 -39 0 -46 -8 -28 -26 6 -6 8 -19 4 -28 -6 -16
-8 -17 -16 -2 -5 9 -15 16 -23 16 -19 0 -45 -63 -45 -107 0 -30 -2 -34 -15
-23 -8 7 -15 8 -15 2 0 -5 7 -15 15 -22 8 -7 15 -28 15 -47 l0 -35 -67 62
c-38 35 -80 83 -95 109 -15 25 -41 60 -57 77 -29 31 -29 32 -12 60 19 31 86
94 101 94 4 0 21 -6 37 -14z m643 -12 c11 -13 10 -19 -9 -37 -22 -22 -22 -22
-36 -3 -13 17 -13 22 2 38 20 22 27 22 43 2z m-79 -31 c60 -63 71 -84 55 -102
-13 -15 -66 -156 -88 -234 -16 -57 -42 -46 -48 20 l-5 52 -67 -60 c-43 -39
-68 -55 -68 -45 0 9 -5 16 -10 16 -7 0 -7 -6 0 -20 9 -16 8 -20 -5 -20 -9 0
-19 8 -22 17 -5 12 10 31 53 70 32 29 54 53 48 53 -6 0 -38 -25 -72 -56 -39
-35 -68 -54 -77 -50 -28 10 -15 34 47 90 34 30 60 57 57 60 -2 3 -29 -17 -59
-44 -60 -54 -74 -59 -85 -32 -5 13 10 31 57 74 35 32 59 57 54 58 -6 0 -23
-12 -38 -27 -27 -26 -28 -26 -43 -7 -8 10 -15 14 -15 8 0 -5 5 -15 12 -22 9
-9 8 -12 -4 -12 -9 0 -20 5 -24 12 -11 18 140 155 200 183 28 12 60 30 71 39
29 22 37 20 76 -21z m114 -24 c5 -15 1 -28 -13 -41 l-20 -20 -12 22 c-9 18 -8
25 6 41 22 24 31 24 39 -2z m-455 -104 c0 -16 -6 -25 -15 -25 -15 0 -21 31 -8
43 13 14 23 6 23 -18z m-75 -30 c0 -10 -6 -20 -12 -22 -8 -3 -13 5 -13 22 0
17 5 25 13 23 6 -3 12 -13 12 -23z m55 -40 c0 -13 6 -25 13 -28 10 -4 10 -7 0
-18 -17 -18 -16 -58 1 -65 8 -3 12 -13 9 -23 -5 -21 24 -54 43 -47 7 3 18 -2
24 -10 15 -17 51 -18 69 -1 18 17 8 -85 -17 -178 -16 -58 -24 -71 -46 -78 -19
-6 -30 -5 -42 7 -19 20 -23 20 -44 1 -24 -22 -72 -6 -81 28 -4 14 -17 40 -28
56 -12 17 -33 55 -46 86 -21 47 -23 56 -10 61 18 7 20 35 3 52 -7 7 -8 12 -2
12 6 0 19 -9 29 -20 10 -11 22 -20 27 -20 4 0 8 43 8 95 0 95 0 95 25 95 24 0
25 -2 25 -75 0 -43 4 -75 10 -75 6 0 10 37 10 91 0 57 4 88 10 84 6 -3 10 -17
10 -30z m-163 -165 c9 -14 10 -21 1 -26 -10 -7 -38 21 -38 38 0 16 25 8 37
-12z m166 -316 c10 -18 36 -18 56 0 9 7 28 16 44 20 24 6 27 4 27 -18 0 -34
-33 -50 -100 -50 -69 1 -100 16 -100 50 0 24 3 25 33 19 17 -4 36 -14 40 -21z"/>
<path d="M490 725 c7 -9 15 -13 17 -11 7 7 -7 26 -19 26 -6 0 -6 -6 2 -15z"/>
<path d="M510 671 c0 -5 5 -13 10 -16 6 -3 10 -2 10 4 0 5 -4 13 -10 16 -5 3
-10 2 -10 -4z"/>
<path d="M1010 910 c0 -16 8 -19 58 -22 l57 -3 3 -227 c2 -220 3 -228 22 -228
19 0 20 7 20 250 l0 250 -80 0 c-73 0 -80 -2 -80 -20z"/>
<path d="M1430 914 c-46 -20 -77 -50 -103 -99 -18 -33 -22 -57 -22 -135 0 -78
4 -102 22 -135 27 -50 58 -80 105 -100 52 -21 96 -19 148 8 90 45 135 163 112
289 -27 143 -147 222 -262 172z m147 -51 c46 -30 67 -89 67 -183 0 -137 -48
-204 -147 -204 -87 0 -137 61 -145 178 -5 84 9 144 44 185 43 51 124 61 181
24z"/>
<path d="M2100 680 l0 -250 123 0 c149 0 211 16 269 68 56 50 78 102 78 182 0
80 -22 132 -78 182 -58 52 -120 68 -269 68 l-123 0 0 -250z m273 196 c99 -30
149 -95 149 -196 0 -141 -93 -210 -284 -210 l-88 0 0 210 0 210 88 0 c49 0
109 -6 135 -14z"/>
<path d="M2610 910 c0 -17 8 -19 88 -22 l87 -3 3 -227 2 -228 25 0 25 0 0 230
0 230 85 0 c78 0 85 2 85 20 0 19 -7 20 -200 20 -192 0 -200 -1 -200 -20z"/>
<path d="M3100 681 l0 -251 25 0 c25 0 25 1 25 79 l0 79 108 4 c84 2 116 8
147 24 59 31 85 75 85 144 0 69 -26 113 -85 144 -33 18 -62 22 -172 24 l-133
4 0 -251z m245 199 c60 -14 95 -58 95 -120 0 -40 -5 -56 -27 -80 -33 -37 -79
-49 -185 -50 l-78 0 0 130 0 130 78 0 c42 0 95 -5 117 -10z"/>
<path d="M1790 620 c0 -19 7 -20 90 -20 83 0 90 1 90 20 0 19 -7 20 -90 20
-83 0 -90 -1 -90 -20z"/>
<path d="M1520 150 c0 -53 4 -90 10 -90 6 0 10 8 10 19 0 10 7 24 15 31 13 11
20 8 45 -21 36 -42 40 -30 5 15 l-25 33 25 23 c14 13 23 26 20 29 -3 2 -23
-13 -45 -34 l-40 -39 0 62 c0 35 -4 62 -10 62 -6 0 -10 -37 -10 -90z"/>
<path d="M2383 150 c0 -52 2 -81 4 -65 7 58 13 75 33 85 36 19 58 -3 63 -63
l3 -52 2 58 c2 53 0 58 -24 69 -20 9 -30 9 -45 0 -27 -17 -27 -16 -32 26 -2
20 -4 -6 -4 -58z"/>
<path d="M1038 150 c15 -44 31 -80 36 -80 5 -1 20 26 32 60 12 34 24 64 27 66
3 3 16 -26 28 -65 13 -39 26 -71 30 -71 9 0 63 160 56 166 -3 3 -16 -26 -28
-65 -13 -39 -25 -68 -28 -65 -3 3 -15 32 -26 65 -11 33 -24 61 -29 62 -4 1
-19 -26 -31 -61 -13 -35 -25 -66 -28 -68 -3 -3 -16 26 -28 65 -13 39 -26 71
-30 71 -4 0 4 -36 19 -80z"/>
<path d="M2786 173 c9 -78 14 -79 14 -5 0 38 -4 62 -11 62 -7 0 -8 -19 -3 -57z"/>
<path d="M1730 206 c0 -8 -6 -17 -12 -19 -10 -4 -10 -6 0 -6 8 -1 12 -18 12
-49 0 -26 5 -53 12 -60 14 -14 48 -16 48 -3 0 5 -8 8 -17 7 -15 -1 -19 9 -21
51 -2 43 0 52 15 56 17 4 17 5 1 6 -10 0 -18 8 -18 16 0 8 -4 15 -10 15 -5 0
-10 -6 -10 -14z"/>
<path d="M2291 208 c0 -10 -9 -18 -18 -18 -16 0 -16 -1 0 -12 10 -8 17 -31 19
-63 3 -43 6 -50 26 -53 12 -2 22 1 22 7 0 6 -3 10 -7 10 -27 -4 -33 4 -33 46
0 38 4 47 23 55 l22 9 -22 0 c-12 1 -24 9 -26 19 -4 16 -5 16 -6 0z"/>
<path d="M1292 174 c-46 -32 -17 -114 40 -114 26 0 58 36 58 65 0 29 -32 65
-58 65 -10 0 -28 -7 -40 -16z m68 -14 c11 -11 20 -27 20 -35 0 -16 -34 -55
-48 -55 -4 0 -18 7 -30 16 -28 20 -28 58 0 78 29 20 34 20 58 -4z"/>
<path d="M1431 125 c2 -67 2 -68 8 -21 5 34 14 53 32 67 24 19 16 26 -11 9 -9
-6 -17 -5 -22 3 -4 7 -7 -19 -7 -58z"/>
<path d="M1830 170 c-11 -11 -20 -31 -20 -45 0 -55 69 -85 105 -45 55 60 -27
148 -85 90z m68 -6 c30 -20 29 -59 -2 -79 -19 -13 -29 -14 -45 -5 -30 16 -32
66 -3 88 20 15 23 15 50 -4z"/>
<path d="M1980 170 c-11 -11 -20 -31 -20 -45 0 -28 32 -65 56 -65 8 0 24 5 35
10 16 9 19 7 19 -9 0 -29 -35 -45 -71 -32 -16 5 -29 6 -29 2 0 -9 34 -21 63
-21 9 0 26 9 37 20 16 16 20 33 20 93 0 44 -4 67 -9 58 -6 -10 -13 -11 -29 -2
-30 16 -49 14 -72 -9z m64 0 c21 -8 26 -16 26 -45 0 -29 -5 -37 -26 -45 -30
-12 -63 2 -65 28 -2 32 2 47 19 60 19 14 15 14 46 2z"/>
<path d="M2152 174 c-32 -22 -30 -78 3 -100 26 -17 75 -13 75 7 0 6 -7 6 -21
-1 -16 -9 -26 -8 -45 5 -37 24 -29 35 26 35 42 0 50 3 50 18 0 22 -30 52 -51
52 -8 0 -25 -7 -37 -16z m63 -7 c25 -19 11 -37 -30 -37 -43 0 -52 14 -23 34
27 19 29 19 53 3z"/>
<path d="M2550 170 c-51 -51 5 -130 74 -104 9 3 16 10 16 15 0 6 -8 5 -19 -1
-25 -13 -71 3 -71 25 0 11 12 15 50 15 38 0 50 4 50 15 0 22 -37 55 -60 55
-11 0 -29 -9 -40 -20z m68 -6 c30 -21 19 -34 -29 -34 -42 0 -54 20 -21 39 23
14 24 14 50 -5z"/>
<path d="M2692 125 c1 -50 3 -57 5 -25 3 34 10 50 31 67 27 23 21 32 -8 13 -9
-6 -17 -5 -22 3 -4 7 -7 -19 -6 -58z"/>
<path d="M2786 81 c-4 -7 -5 -15 -2 -18 9 -9 19 4 14 18 -4 11 -6 11 -12 0z"/>
</g>
</svg>